# xmcd CD database file
#
# Track frame offsets:
#	150
#	14149
#	33938
#	46504
#	56558
#	77750
#	98511
#	116713
#	138186
#	158593
#	183501
#
# Disc length: 2590 seconds
#
# Revision: 0
# Processed by: cddbd v1.5.1PL0 Copyright (c) Steve Scherf et al.
# Submitted via: CDex 1.51
#
DISCID=800a1c0b
DTITLE=Derrick Stout Orchestra - Aristocratic Blues
DYEAR=2000
DGENRE=Jazz
TTITLE0=Fly me to the Moon
TTITLE1=Moonglow
TTITLE2=The Summer Wind
TTITLE3=Big Ten Inch Record
TTITLE4=Witchcraft
TTITLE5=Girl From Ipanema
TTITLE6=Makin' Whoopie
TTITLE7=Lady is a Tramp
TTITLE8=They Can't Take That Away
TTITLE9=My Funny Valentine
TTITLE10=A-Train
EXTD=YEAR: 2000
EXTT0=
EXTT1=
EXTT2=
EXTT3=
EXTT4=
EXTT5=
EXTT6=
EXTT7=
EXTT8=
EXTT9=
EXTT10=
PLAYORDER=
